<svg preserveAspectRatio="none" overflow="visible" style="display: block;" width="54.4999" height="55" viewBox="0 0 54.4999 55" fill="none" xmlns="http://www.w3.org/2000/svg">
<path id="&#208;&#159;&#208;&#184;&#209;&#137;&#208;&#181;&#208;&#178;&#208;&#186;&#208;&#176;" d="M15 27.5C7 25 1 30.5 1 38.5C1 50.0001 9.8 54 15 54C17.3976 54 20.5604 53.1497 23.2732 51.1059M15 27.5C14 24.5001 13.1 21.9288 11.5 21.5001M15 27.5L17 33.0001M23.2732 51.1059C26.444 48.7171 28.9999 44.6977 28.9999 38.4999C28.9999 36.4772 28.6164 34.6142 27.9139 33.0001C26.8884 30.6438 25.1834 28.8175 22.9999 27.7977C20.7633 26.7531 18.0246 26.5548 15 27.5M22.9999 27.7977V26C22.9999 24 23.4999 22 24.9999 19.5L32.4999 7H31.4999C26.9999 7 26.9999 1 31.4999 1H44.9999C49.4999 1 49.4999 7 44.9999 7H43.9999L51.4999 19.5C52.9999 22 53.4999 24 53.4999 26V49.5C53.4999 51.5 52.1999 54 48.9999 54H27.4999C25.1305 54 23.8028 52.6294 23.2732 51.1059" stroke="black" stroke-width="2" stroke-linecap="round"/>
</svg>
