<svg preserveAspectRatio="none" overflow="visible" style="display: block;" width="50" height="53" viewBox="0 0 50 53" fill="none" xmlns="http://www.w3.org/2000/svg">
<g id="&#208;&#164;&#208;&#176;&#209;&#128;&#208;&#188;&#208;&#176;&#209;&#134;&#208;&#181;&#208;&#178;&#209;&#130;&#208;&#184;&#208;&#186;&#208;&#176;">
<path d="M9.78277 28.6532C10.2625 28.3742 10.8762 28.5399 11.1532 29.0232L20.6829 45.6486C20.9599 46.1319 20.7953 46.7501 20.3155 47.0291C19.8358 47.3079 19.223 47.1422 18.946 46.6591L9.41639 30.0336C9.13945 29.5504 9.3032 28.9323 9.78277 28.6532Z" fill="black"/>
<path fill-rule="evenodd" clip-rule="evenodd" d="M7.52575 24.7151C14.7225 20.5299 23.9258 23.0144 28.0809 30.2635C32.2355 37.5125 29.7691 46.7819 22.5725 50.9671C15.3759 55.152 6.17342 52.6685 2.0184 45.4197C-2.13662 38.1707 0.329097 28.9004 7.52575 24.7151ZM26.343 31.2739C22.742 24.9914 14.7661 22.8384 8.52887 26.4656C2.29191 30.0929 0.155237 38.1269 3.75622 44.4093C7.35731 50.6915 15.3324 52.8436 21.5694 49.2167C27.8065 45.5895 29.9438 37.5564 26.343 31.2739Z" fill="black"/>
<path fill-rule="evenodd" clip-rule="evenodd" d="M47.1341 14.608C50.2366 16.4494 50.9277 21.0601 48.6778 24.9064C46.4279 28.7526 42.0889 30.3779 38.9863 28.5366L15.6516 14.6873C12.5491 12.8459 11.8579 8.23519 14.1078 4.38893C16.3578 0.542663 20.6968 -1.08263 23.7993 0.758735L47.1341 14.608ZM28.3778 20.797L39.6131 27.4652C42.2383 29.0232 45.9098 27.648 47.8136 24.3934C49.7173 21.1389 49.1325 17.2375 46.5073 15.6794L35.2721 9.01127L28.3778 20.797Z" fill="black"/>
</g>
</svg>
