<svg preserveAspectRatio="none" overflow="visible" style="display: block;" width="38.6628" height="31.68" viewBox="0 0 38.6628 31.68" fill="none" xmlns="http://www.w3.org/2000/svg">
<path id="Vector" d="M1 25.2804C0.447715 25.2804 0 25.7281 0 26.2804C0 26.8327 0.447715 27.2804 1 27.2804V26.2804V25.2804ZM5.21106 27.563L4.22726 27.7422V27.7422L5.21106 27.563ZM12.0142 28.9482L11.1961 28.3731V28.3731L12.0142 28.9482ZM13.7622 28.3718L13.5074 29.3388H13.5074L13.7622 28.3718ZM17.5797 26.7915L18.3911 27.3759L18.3911 27.3759L17.5797 26.7915ZM36.9336 27.2804C37.4859 27.2804 37.9336 26.8327 37.9336 26.2804C37.9336 25.7281 37.4859 25.2804 36.9336 25.2804V26.2804V27.2804ZM11.2859 15.0617L12.1623 14.5801L12.1502 14.558L12.1369 14.5365L11.2859 15.0617ZM9.45497 12.0948L10.306 11.5696L9.45497 10.1906L8.60397 11.5696L9.45497 12.0948ZM7.62401 15.0617L6.77301 14.5365L6.75976 14.558L6.7476 14.5801L7.62401 15.0617ZM10.0778 7.40138L9.23363 6.86529V6.86529L10.0778 7.40138ZM36.0281 15.4615L36.5597 14.6146V14.6146L36.0281 15.4615ZM32.2911 21.346L32.8228 20.4991V20.4991L32.2911 21.346ZM37.4415 17.1953L38.3786 16.8462V16.8462L37.4415 17.1953ZM34.4732 21.8694L34.5623 22.8655V22.8655L34.4732 21.8694ZM1 26.2804V27.2804H3.93027V26.2804V25.2804H1V26.2804ZM5.21106 27.563L4.22726 27.7422C4.55643 29.5491 5.98249 30.987 7.66083 31.4869C9.41776 32.0102 11.4374 31.5073 12.8322 29.5234L12.0142 28.9482L11.1961 28.3731C10.3028 29.6437 9.17648 29.8515 8.23172 29.5701C7.20837 29.2653 6.37698 28.3833 6.19487 27.3838L5.21106 27.563ZM13.7622 28.3718L13.5074 29.3388C15.1993 29.7846 17.0544 29.2318 18.3911 27.3759L17.5797 26.7915L16.7683 26.207C15.8918 27.4239 14.8698 27.6295 14.017 27.4048L13.7622 28.3718ZM18.5148 26.2804V27.2804H36.9336V26.2804V25.2804H18.5148V26.2804ZM17.5797 26.7915L18.3911 27.3759C18.4226 27.3323 18.4553 27.3061 18.4788 27.2928C18.5003 27.2807 18.5114 27.2804 18.5148 27.2804V26.2804V25.2804C17.7586 25.2804 17.14 25.6909 16.7683 26.207L17.5797 26.7915ZM12.0142 28.9482L12.8322 29.5234C12.9273 29.3882 13.2065 29.2595 13.5074 29.3388L13.7622 28.3718L14.017 27.4048C13.0507 27.1502 11.8521 27.44 11.1961 28.3731L12.0142 28.9482ZM3.93027 26.2804V27.2804C3.93727 27.2804 3.94479 27.2812 3.95904 27.2881C3.97593 27.2964 4.00627 27.3156 4.04402 27.3563C4.12506 27.4436 4.19876 27.5858 4.22726 27.7422L5.21106 27.563L6.19487 27.3838C6.0315 26.487 5.28674 25.2804 3.93027 25.2804V26.2804ZM9.45497 18.3995V17.3995C8.88767 17.3995 8.34123 16.9 8.34123 16.1743H7.34123H6.34123C6.34123 17.9065 7.6875 19.3995 9.45497 19.3995V18.3995ZM11.5687 16.1743H10.5687C10.5687 16.9 10.0223 17.3995 9.45497 17.3995V18.3995V19.3995C11.2224 19.3995 12.5687 17.9065 12.5687 16.1743H11.5687ZM11.2859 15.0617L10.4095 15.5433C10.5094 15.725 10.5687 15.9396 10.5687 16.1743H11.5687H12.5687C12.5687 15.5983 12.4222 15.053 12.1623 14.5801L11.2859 15.0617ZM11.2859 15.0617L12.1369 14.5365L10.306 11.5696L9.45497 12.0948L8.60397 12.6199L10.4349 15.5869L11.2859 15.0617ZM7.62401 15.0617L6.7476 14.5801C6.48777 15.053 6.34123 15.5984 6.34123 16.1743H7.34123H8.34123C8.34123 15.9396 8.40054 15.725 8.50041 15.5433L7.62401 15.0617ZM9.45497 12.0948L8.60397 11.5696L6.77301 14.5365L7.62401 15.0617L8.475 15.5869L10.306 12.6199L9.45497 12.0948ZM13.8148 1.51684L12.9706 0.980756L9.23363 6.86529L10.0778 7.40138L10.922 7.93746L14.6589 2.05293L13.8148 1.51684ZM10.0778 7.40138L9.23363 6.86529L8.6108 7.84605L9.45497 8.38213L10.2991 8.91822L10.922 7.93746L10.0778 7.40138ZM13.8148 1.51684L14.6589 2.05293L15.2818 1.07217L14.4376 0.536085L13.5934 0L12.9706 0.980756L13.8148 1.51684ZM36.0281 15.4615L36.5597 14.6146L28.6215 9.63126L28.0899 10.4782L27.5582 11.3252L35.4964 16.3084L36.0281 15.4615ZM28.0899 10.4782L28.6215 9.63126L14.3464 0.669896L13.8148 1.51684L13.2831 2.36379L27.5582 11.3252L28.0899 10.4782ZM10.0778 7.40138L9.54612 8.24832L14.4474 11.3252L14.9791 10.4782L15.5107 9.63126L10.6095 6.55443L10.0778 7.40138ZM14.9791 10.4782L14.4474 11.3252L31.7594 22.193L32.2911 21.346L32.8228 20.4991L15.5107 9.63126L14.9791 10.4782ZM28.0899 10.4782V9.47821H14.9791V10.4782V11.4782H28.0899V10.4782ZM37.4415 17.1953L38.3786 16.8462C38.0347 15.9229 37.3951 15.139 36.5597 14.6146L36.0281 15.4615L35.4964 16.3084C35.9607 16.5999 36.3146 17.0346 36.5044 17.5444L37.4415 17.1953ZM34.4732 21.8694L34.5623 22.8655C37.5088 22.6019 39.4123 19.6212 38.3786 16.8462L37.4415 17.1953L36.5044 17.5444C37.0724 19.0691 36.0306 20.7261 34.3841 20.8734L34.4732 21.8694ZM34.4732 21.8694L34.3841 20.8734C33.8359 20.9225 33.2872 20.7907 32.8228 20.4991L32.2911 21.346L31.7594 22.193C32.5947 22.7173 33.5796 22.9534 34.5623 22.8655L34.4732 21.8694ZM30.064 15.7725V14.7725C30.3189 14.7725 30.5355 14.9796 30.5355 15.2471H29.5355H28.5355C28.5355 16.095 29.2253 16.7725 30.064 16.7725V15.7725ZM30.5924 15.2471H29.5924C29.5924 14.9796 29.809 14.7725 30.064 14.7725V15.7725V16.7725C30.9026 16.7725 31.5924 16.095 31.5924 15.2471H30.5924ZM30.064 14.7217V15.7217C29.809 15.7217 29.5924 15.5147 29.5924 15.2471H30.5924H31.5924C31.5924 14.3993 30.9026 13.7217 30.064 13.7217V14.7217ZM30.064 14.7217V13.7217C29.2253 13.7217 28.5355 14.3993 28.5355 15.2471H29.5355H30.5355C30.5355 15.5147 30.3189 15.7217 30.064 15.7217V14.7217ZM31.9663 18.6097V17.6097C32.1046 17.6097 32.2265 17.7226 32.2265 17.8741H31.2265H30.2265C30.2265 18.8381 31.0109 19.6097 31.9663 19.6097V18.6097ZM32.7061 17.8741H31.7061C31.7061 17.7226 31.8281 17.6097 31.9663 17.6097V18.6097V19.6097C32.9217 19.6097 33.7061 18.8381 33.7061 17.8741H32.7061ZM31.9663 17.1386V18.1386C31.8281 18.1386 31.7061 18.0256 31.7061 17.8741H32.7061H33.7061C33.7061 16.9102 32.9217 16.1386 31.9663 16.1386V17.1386ZM31.9663 17.1386V16.1386C31.0109 16.1386 30.2265 16.9102 30.2265 17.8741H31.2265H32.2265C32.2265 18.0256 32.1046 18.1386 31.9663 18.1386V17.1386ZM31.9663 18.3645V17.3645C31.9308 17.3645 31.944 17.3531 31.9957 17.3873C32.0398 17.4166 32.2265 17.5684 32.2265 17.8741H31.2265H30.2265C30.2265 18.4506 30.5788 18.8477 30.8907 19.0544C31.2101 19.2661 31.5933 19.3645 31.9663 19.3645V18.3645ZM32.7061 17.8741H31.7061C31.7061 17.5684 31.8928 17.4166 31.937 17.3873C31.9886 17.3531 32.0019 17.3645 31.9663 17.3645V18.3645V19.3645C32.3393 19.3645 32.7225 19.2661 33.0419 19.0544C33.3538 18.8477 33.7061 18.4506 33.7061 17.8741H32.7061ZM31.9663 17.3837V18.3837C32.0019 18.3837 31.9886 18.3951 31.937 18.3609C31.8928 18.3316 31.7061 18.1798 31.7061 17.8741H32.7061H33.7061C33.7061 17.2976 33.3538 16.9006 33.0419 16.6938C32.7225 16.4821 32.3393 16.3837 31.9663 16.3837V17.3837ZM31.9663 17.3837V16.3837C31.5933 16.3837 31.2101 16.4821 30.8907 16.6938C30.5788 16.9006 30.2265 17.2976 30.2265 17.8741H31.2265H32.2265C32.2265 18.1798 32.0398 18.3316 31.9957 18.3609C31.944 18.3951 31.9308 18.3837 31.9663 18.3837V17.3837Z" fill="black"/>
</svg>
